<svg width="63" height="60" viewBox="0 0 63 60" fill="none" xmlns="http://www.w3.org/2000/svg">
<rect x="0.5" y="0.5" width="62" height="59" rx="7.5" stroke="#747EAA"/>
<path d="M32.4 34.8C33.6726 34.7987 34.8927 34.2925 35.7926 33.3927C36.6925 32.4928 37.1987 31.2726 37.2 30V22.8C37.2 21.527 36.6943 20.3061 35.7941 19.4059C34.8939 18.5057 33.673 18 32.4 18C31.1269 18 29.906 18.5057 29.0059 19.4059C28.1057 20.3061 27.6 21.527 27.6 22.8V30C27.6013 31.2726 28.1074 32.4928 29.0073 33.3927C29.9072 34.2925 31.1273 34.7987 32.4 34.8V34.8Z" fill="white"/>
<path d="M40.8 30V27.6C40.8 27.2818 40.6736 26.9765 40.4485 26.7515C40.2235 26.5265 39.9183 26.4 39.6 26.4C39.2817 26.4 38.9765 26.5265 38.7515 26.7515C38.5264 26.9765 38.4 27.2818 38.4 27.6V30C38.4 31.5913 37.7679 33.1174 36.6426 34.2427C35.5174 35.3679 33.9913 36 32.4 36C30.8087 36 29.2826 35.3679 28.1574 34.2427C27.0321 33.1174 26.4 31.5913 26.4 30V27.6C26.4 27.2818 26.2736 26.9765 26.0485 26.7515C25.8235 26.5265 25.5183 26.4 25.2 26.4C24.8817 26.4 24.5765 26.5265 24.3515 26.7515C24.1264 26.9765 24 27.2818 24 27.6V30C24.0034 32.01 24.7269 33.9523 26.0394 35.4746C27.3519 36.997 29.1664 37.9987 31.154 38.298L31.2 38.304V39.6H27.6C27.4424 39.6 27.2864 39.6311 27.1408 39.6914C26.9952 39.7517 26.8629 39.8401 26.7515 39.9515C26.64 40.0629 26.5517 40.1952 26.4913 40.3408C26.431 40.4864 26.4 40.6424 26.4 40.8C26.4 40.9576 26.431 41.1137 26.4913 41.2592C26.5517 41.4048 26.64 41.5371 26.7515 41.6486C26.8629 41.76 26.9952 41.8484 27.1408 41.9087C27.2864 41.969 27.4424 42 27.6 42H37.2C37.3576 42 37.5136 41.969 37.6592 41.9087C37.8048 41.8484 37.9371 41.76 38.0485 41.6486C38.16 41.5371 38.2484 41.4048 38.3087 41.2592C38.369 41.1137 38.4 40.9576 38.4 40.8C38.4 40.6424 38.369 40.4864 38.3087 40.3408C38.2484 40.1952 38.16 40.0629 38.0485 39.9515C37.9371 39.8401 37.8048 39.7517 37.6592 39.6914C37.5136 39.6311 37.3576 39.6 37.2 39.6H33.6V38.304C37.69 37.695 40.793 34.211 40.8 30.001V30Z" fill="#515B85"/>
<circle cx="53.5" cy="19.5" r="1.5" transform="rotate(-90 53.5 19.5)" fill="white"/>
<circle cx="53.5" cy="14.5" r="1.5" transform="rotate(-90 53.5 14.5)" fill="white"/>
<circle cx="53.5" cy="9.5" r="1.5" transform="rotate(-90 53.5 9.5)" fill="white"/>
</svg>
