<svg width="63" height="60" viewBox="0 0 63 60" fill="none" xmlns="http://www.w3.org/2000/svg">
<rect x="0.5" y="0.5" width="62" height="59" rx="7.5" stroke="#747EAA"/>
<path d="M32.4876 18.2872C33.2002 17.6431 34.3333 18.1527 34.3333 19.1182V39.8817C34.3333 40.8473 33.2002 41.3575 32.4876 40.7121L27.299 36.0145C26.7478 35.5155 26.0333 35.2396 25.2927 35.2396H22.3196C21.4392 35.2396 20.5948 34.8869 19.9723 34.259C19.3497 33.6311 19 32.7795 19 31.8915V27.1084C19 25.259 20.4859 23.7603 22.3196 23.7603H25.2927C26.0333 23.7603 26.7478 23.4844 27.299 22.9855L32.4876 18.2872Z" fill="white"/>
<path fill-rule="evenodd" clip-rule="evenodd" d="M38.2009 24.1019C38.4317 23.9415 38.7686 23.974 38.9532 24.1746C39.505 24.774 40.5084 25.9513 40.8676 27.6056C41.2309 29.2788 40.9232 31.3815 38.9738 33.8016C38.8042 34.012 38.4705 34.0632 38.2283 33.9159C37.9862 33.7686 37.9273 33.4786 38.0968 33.2681C39.8939 31.0371 40.1215 29.1863 39.8157 27.7781C39.5059 26.351 38.636 25.3191 38.1173 24.7557C37.9327 24.5551 37.9701 24.2624 38.2009 24.1019Z" fill="#515B85"/>
<path fill-rule="evenodd" clip-rule="evenodd" d="M41.2372 21.1004C41.4932 20.9288 41.8503 20.9826 42.0349 21.2205C42.8453 22.2651 44.2925 24.2854 44.8097 27.1122C45.3297 29.9543 44.9005 33.5599 42.0547 37.7522C41.8863 38.0003 41.5334 38.0745 41.2665 37.918C40.9996 37.7614 40.9198 37.4333 41.0883 37.1852C43.7903 33.2045 44.1537 29.8629 43.683 27.2904C43.2095 24.7026 41.8828 22.8407 41.108 21.842C40.9234 21.6041 40.9813 21.272 41.2372 21.1004Z" fill="#515B85"/>
</svg>
